# xmcd
#
# Track frame offsets:
#	150
#	14417
#	28782
#	43370
#	61089
#	74854
#	90029
#	104898
#	119186
#	137783
#	154086
#
# Disc length: 2227 seconds
#
# Revision: 0
# Processed by: cddbd v1.5.1PL0 Copyright (c) Steve Scherf et al.
# Submitted via: audiograbber 1.83.01
#
DISCID=a408b10b
DTITLE=Clark, Terri - Just The Same - Clark, Terri - Just The Same
DYEAR=1996
DGENRE=Country
TTITLE0=Emotional Girl
TTITLE1=Poor, Poor Pitiful Me
TTITLE2=Just The Same
TTITLE3=Something In The Water
TTITLE4=Neon Flame
TTITLE5=Any Woman
TTITLE6=Twang Thang
TTITLE7=You Do Or You Don't
TTITLE8=Keeper Of The Flame
TTITLE9=Not What I Wanted To Hear
TTITLE10=Hold Your Horses
EXTD=
EXTT0=
EXTT1=
EXTT2=
EXTT3=
EXTT4=
EXTT5=
EXTT6=
EXTT7=
EXTT8=
EXTT9=
EXTT10=
PLAYORDER=
